<?xml version="1.0" encoding="utf-8"?>
<!-- Generator: Adobe Illustrator 16.0.4, SVG Export Plug-In . SVG Version: 6.00 Build 0)  -->
<!DOCTYPE svg PUBLIC "-//W3C//DTD SVG 1.1//EN" "http://www.w3.org/Graphics/SVG/1.1/DTD/svg11.dtd">
<svg version="1.1" id="Layer_1" xmlns="http://www.w3.org/2000/svg" xmlns:xlink="http://www.w3.org/1999/xlink" x="0px" y="0px"
	 width="595.28px" height="841.89px" viewBox="0 0 595.28 841.89" enable-background="new 0 0 595.28 841.89" xml:space="preserve">
<rect fill="#C0E0B8" width="595.28" height="841.89"/>
<rect x="17" y="15" fill="none" stroke="#3071B8" stroke-miterlimit="10" width="171" height="164"/>
<rect x="188" y="15" fill="none" stroke="#3071B8" stroke-miterlimit="10" width="100" height="164"/>
<rect x="288" y="15" fill="none" stroke="#3071B8" stroke-miterlimit="10" width="292" height="164"/>
<rect x="17.14" y="179" fill="none" stroke="#3071B8" stroke-miterlimit="10" width="118.86" height="470"/>
<rect x="136" y="179" fill="none" stroke="#3071B8" stroke-miterlimit="10" width="339" height="470"/>
<rect x="475" y="179" fill="none" stroke="#3071B8" stroke-miterlimit="10" width="105.141" height="526"/>
<rect x="17" y="649" fill="none" stroke="#3071B8" stroke-miterlimit="10" width="307" height="56"/>
<rect x="324" y="649" fill="none" stroke="#3071B8" stroke-miterlimit="10" width="151" height="56"/>
<rect x="17" y="705" fill="none" stroke="#3071B8" stroke-miterlimit="10" width="86.617" height="122"/>
<rect x="103.617" y="705" fill="none" stroke="#3071B8" stroke-miterlimit="10" width="371.383" height="122"/>
<rect x="17" y="143" fill="none" stroke="#3071B8" stroke-miterlimit="10" width="271" height="36"/>
<rect x="288" y="143" fill="none" stroke="#3071B8" stroke-miterlimit="10" width="187" height="36"/>
<rect x="475" y="143" fill="none" stroke="#3071B8" stroke-miterlimit="10" width="105" height="36"/>
<g>
	<polygon fill="#007AC2" points="103.619,827 103.619,792 17.141,792 17.141,827 103.619,827 	"/>
	<polygon fill="#FFFFFF" points="25.596,795.378 34.999,795.378 40.771,814.914 40.852,814.914 44.808,795.378 51.911,795.378 
		45.938,823.551 36.575,823.551 30.681,804.057 30.6,804.057 26.685,823.551 19.581,823.551 25.596,795.378 	"/>
	<polygon fill="#FFFFFF" points="54.691,795.378 62.24,795.378 60.019,806.155 68.939,806.155 71.159,795.378 78.706,795.378 
		72.854,823.551 65.305,823.551 67.809,811.482 58.89,811.482 56.386,823.551 48.839,823.551 54.691,795.378 	"/>
	<path fill="#FFFFFF" d="M98.563,801.756c-1.454-0.688-3.432-1.292-6.216-1.292c-2.988,0-5.409,0.443-5.409,2.703
		c0,3.997,10.938,2.503,10.938,11.06c0,7.79-7.225,9.809-13.764,9.809c-2.905,0-6.255-0.686-8.719-1.453l1.776-5.732
		c1.494,0.97,4.48,1.615,6.942,1.615c2.341,0,6.013-0.443,6.013-3.35c0-4.521-10.937-2.826-10.937-10.776
		c0-7.265,6.376-9.446,12.552-9.446c3.471,0,6.74,0.365,8.638,1.252L98.563,801.756L98.563,801.756z"/>
</g>
<rect x="24.57" y="22.5" fill="#3171B8" width="100" height="13"/>
<rect x="195.57" y="22.5" fill="#3171B8" width="27.43" height="13"/>
<rect x="195.57" y="71.5" fill="#3171B8" width="42.43" height="13"/>
<rect x="297.785" y="22.5" fill="#3171B8" width="251.215" height="13"/>
<rect x="26.893" y="190" fill="#3171B8" width="97.678" height="13"/>
<rect x="27.731" y="154.5" fill="#3171B8" width="97.678" height="13"/>
<rect x="199.893" y="154.5" fill="#3171B8" width="48.839" height="13"/>
<rect x="27.731" y="661.5" fill="#3171B8" width="48.839" height="13"/>
<rect x="288" y="143" fill="none" stroke="#3071B8" stroke-miterlimit="10" width="105" height="36"/>
<rect x="359.309" y="143" fill="none" stroke="#3071B8" stroke-miterlimit="10" width="33.691" height="36"/>
<rect x="334.889" y="661.5" fill="#3171B8" width="48.839" height="13"/>
<rect x="27.731" y="715.266" fill="#3171B8" width="48.839" height="36.969"/>
<rect x="486.893" y="154.5" fill="#3171B8" width="48.839" height="13"/>
<rect x="368.58" y="151.609" fill="#3171B8" width="15.147" height="18.281"/>
<rect x="26.893" y="244" fill="none" stroke="#F7EC17" stroke-width="7" stroke-miterlimit="10" width="438.107" height="44"/>
</svg>
